# xmcd
#
# Track frame offsets:
#	150
#	11749
#	27414
#	39835
#	60098
#	75912
#	88313
#	103722
#	121337
#	132276
#	143163
#	157584
#	172234
#	184699
#
# Disc length: 2681 seconds
#
# Revision: 0
# Processed by: cddbd v1.5.2PL0 Copyright (c) Steve Scherf et al.
# Submitted via: dBpowerAMP V4.0
#
DISCID=a70a770e
DTITLE=Percy Sledge - When A Man Loves A Woman
DYEAR=1900
DGENRE=
TTITLE0=When A Man Loves A Woman
TTITLE1=Take Time To Know Her
TTITLE2=Warm And Tender Love
TTITLE3=Cover Me
TTITLE4=It Tears Me Up
TTITLE5=Try A Little Tenderness
TTITLE6=My Special Prayer
TTITLE7=Tell It Like It Is
TTITLE8=Behind Closed Doors
TTITLE9=If Loving You Is Wrong
TTITLE10=Hard To Be Friends
TTITLE11=Walking In The Sun
TTITLE12=I'll Be Your Everything
TTITLE13=The Good Love
EXTD=
EXTT0=
EXTT1=
EXTT2=
EXTT3=
EXTT4=
EXTT5=
EXTT6=
EXTT7=
EXTT8=
EXTT9=
EXTT10=
EXTT11=
EXTT12=
EXTT13=
PLAYORDER=
